<svg width="20" height="20" viewBox="0 0 20 20" fill="none" xmlns="http://www.w3.org/2000/svg">
<path d="M16.886 9.98866C16.886 12.2462 15.0596 14.0726 12.802 14.0726H10.4538C10.1929 14.0726 9.98298 13.8627 9.98298 13.6018V9.98866C9.98298 8.62167 8.87124 7.50993 7.50425 7.50993C6.13727 7.50993 5.02552 8.62167 5.02552 9.98866V13.6018C5.02552 13.8627 4.81566 14.0726 4.55474 14.0726H3.89677C3.63585 14.0726 3.42598 13.8627 3.42598 13.6018V9.98866C3.42598 7.73114 5.25241 5.90471 7.50993 5.90471C9.76744 5.90471 11.5939 7.73114 11.5939 9.98866V12.4674H12.802C14.169 12.4674 15.2808 11.3556 15.2808 9.98866V6.3755C15.2808 6.11458 15.4906 5.90471 15.7516 5.90471H16.4209C16.6818 5.90471 16.8917 6.11458 16.8917 6.3755C16.8917 6.38684 16.8917 6.39251 16.8917 6.40386L16.886 9.98866ZM10 0C4.47533 0 0 4.47533 0 10C0 15.5247 4.47533 20 10 20C15.5247 20 20 15.5247 20 10C20 4.47533 15.5247 0 10 0Z" fill="#1399D6"/>
</svg>
