<svg width="15" height="14" viewBox="0 0 15 14" fill="none" xmlns="http://www.w3.org/2000/svg">
<path d="M13.182 0H9.23812C8.51322 0 7.50444 0.415678 6.99244 0.927673L0.883996 7.04119C0.372001 7.55318 0.372001 8.38961 0.883996 8.9016L5.5984 13.616C6.11039 14.128 6.94682 14.128 7.45881 13.616L13.5673 7.50756C14.0793 6.99556 14.5 5.98678 14.5 5.26188V1.31294C14.5 0.588033 13.9069 0 13.1871 0H13.182ZM11.4331 4.37476C10.7082 4.37476 10.1202 3.78673 10.1202 3.06183C10.1202 2.33692 10.7082 1.74889 11.4331 1.74889C12.158 1.74889 12.746 2.33692 12.746 3.06183C12.746 3.78673 12.158 4.37476 11.4331 4.37476Z" fill="#F89500"/>
</svg>
