<svg width="129" height="106" viewBox="0 0 129 106" fill="none" xmlns="http://www.w3.org/2000/svg">
<g style="mix-blend-mode:multiply" opacity="0.8" clip-path="url(#clip0_106_4199)">
<path d="M92.978 68.9912V70.2674H91.7015" stroke="#2C2F33" stroke-width="1.78942" stroke-linejoin="round"/>
<path d="M89.1741 70.2666H50.0886" stroke="#2C2F33" stroke-width="1.78942" stroke-linejoin="round"/>
<path d="M48.8249 70.2674H47.5485V68.9912" stroke="#2C2F33" stroke-width="1.78942" stroke-linejoin="round"/>
<path d="M47.5486 66.3348V35.8467" stroke="#2C2F33" stroke-width="1.78942" stroke-linejoin="round"/>
<path d="M47.5485 34.533V33.2568H48.8249" stroke="#2C2F33" stroke-width="1.78942" stroke-linejoin="round"/>
<path d="M51.3523 33.2568H90.4378" stroke="#2C2F33" stroke-width="1.78942" stroke-linejoin="round"/>
<path d="M91.7015 33.2568H92.978V34.533" stroke="#2C2F33" stroke-width="1.78942" stroke-linejoin="round"/>
<path d="M92.978 37.1758V67.6639" stroke="#2C2F33" stroke-width="1.78942" stroke-linejoin="round"/>
<path d="M127.647 1.35352H35.7411V84.3056H127.647V1.35352Z" stroke="#2C2F33" stroke-width="1.78942" stroke-linejoin="round"/>
<path d="M92.544 1.35352H70.844V15.3916H92.544V1.35352Z" stroke="#2C2F33" stroke-width="1.78942" stroke-linejoin="round"/>
<path d="M70.2058 48.5713H1.27643V104.723H70.2058V48.5713Z" fill="white" stroke="#2C2F33" stroke-width="1.69614" stroke-miterlimit="10"/>
<path d="M10.5309 70.2666V88.1332" stroke="#2C2F33" stroke-width="1.78942" stroke-linecap="round" stroke-linejoin="round"/>
<path d="M14.973 70.2666V88.1332" stroke="#2C2F33" stroke-width="1.78942" stroke-linecap="round" stroke-linejoin="round"/>
<path d="M9.25439 60.0576H30.9544" stroke="#2C2F33" stroke-width="1.78942" stroke-linecap="round" stroke-linejoin="round"/>
<path d="M9.25439 97.0674H60.3132" stroke="#2C2F33" stroke-width="1.78942" stroke-linecap="round" stroke-linejoin="round"/>
<path d="M20.1683 70.2666V88.1332" stroke="#2C2F33" stroke-width="1.78942" stroke-linecap="round" stroke-linejoin="round"/>
<path d="M29.0652 70.2666V88.1332" stroke="#2C2F33" stroke-width="1.78942" stroke-linecap="round" stroke-linejoin="round"/>
<path d="M33.5073 70.2666V88.1332" stroke="#2C2F33" stroke-width="1.78942" stroke-linecap="round" stroke-linejoin="round"/>
<path d="M39.8896 70.2666V88.1332" stroke="#2C2F33" stroke-width="1.78942" stroke-linecap="round" stroke-linejoin="round"/>
<path d="M44.3317 70.2666V88.1332" stroke="#2C2F33" stroke-width="1.78942" stroke-linecap="round" stroke-linejoin="round"/>
<path d="M49.5271 70.2666V88.1332" stroke="#2C2F33" stroke-width="1.78942" stroke-linecap="round" stroke-linejoin="round"/>
<path d="M53.9691 70.2666V88.1332" stroke="#2C2F33" stroke-width="1.78942" stroke-linecap="round" stroke-linejoin="round"/>
<path d="M58.424 70.2666V88.1332" stroke="#2C2F33" stroke-width="1.78942" stroke-linecap="round" stroke-linejoin="round"/>
<path d="M62.8661 70.2666V88.1332" stroke="#2C2F33" stroke-width="1.78942" stroke-linecap="round" stroke-linejoin="round"/>
</g>
<defs>
<clipPath id="clip0_106_4199">
<rect width="129" height="106" fill="white"/>
</clipPath>
</defs>
</svg>
