<svg width="22" height="21" viewBox="0 0 22 21" fill="none" xmlns="http://www.w3.org/2000/svg">
<path d="M18.0366 16.0658H5.46312L1.27197 20.2569V3.49234C1.27197 1.95559 2.52932 0.698242 4.06607 0.698242H18.0366C19.5733 0.698242 20.8307 1.95559 20.8307 3.49234V13.2717C20.8307 14.8084 19.5733 16.0658 18.0366 16.0658Z" stroke="#0E1260" stroke-width="1.39705" stroke-linecap="round" stroke-linejoin="round"/>
<path d="M6.86015 8.3824C7.24593 8.3824 7.55867 8.06966 7.55867 7.68388C7.55867 7.29809 7.24593 6.98535 6.86015 6.98535C6.47436 6.98535 6.16162 7.29809 6.16162 7.68388C6.16162 8.06966 6.47436 8.3824 6.86015 8.3824Z" fill="#949AA8"/>
<path d="M11.0516 8.3824C11.4373 8.3824 11.7501 8.06966 11.7501 7.68388C11.7501 7.29809 11.4373 6.98535 11.0516 6.98535C10.6658 6.98535 10.353 7.29809 10.353 7.68388C10.353 8.06966 10.6658 8.3824 11.0516 8.3824Z" fill="#949AA8"/>
<path d="M15.2425 8.3824C15.6283 8.3824 15.941 8.06966 15.941 7.68388C15.941 7.29809 15.6283 6.98535 15.2425 6.98535C14.8567 6.98535 14.5439 7.29809 14.5439 7.68388C14.5439 8.06966 14.8567 8.3824 15.2425 8.3824Z" fill="#949AA8"/>
</svg>
