<svg width="35" height="37" viewBox="0 0 35 37" fill="none" xmlns="http://www.w3.org/2000/svg">
<g clip-path="url(#clip0_2087_366)">
<path d="M6.60876 23.9298V11.7979H26.3846V24.8649H24.8986H23.2656" stroke="#2B6EBF" stroke-width="1.2" stroke-miterlimit="10" stroke-linecap="round"/>
<path d="M19.4286 11.834H13.7115V17.354H19.4286V11.834Z" stroke="#2B6EBF" stroke-width="1.2" stroke-miterlimit="10" stroke-linecap="round"/>
<path d="M19.5989 24.9648H15.3912" stroke="#2B6EBF" stroke-width="1.2" stroke-miterlimit="10" stroke-linecap="round"/>
<path d="M17.3949 25.6531C18.036 25.7867 18.764 25.4427 19.3183 25.1622C19.3183 25.1622 22.2637 23.8064 23.2655 24.8917C23.9234 25.6063 21.4856 26.6115 20.6708 27.1959C18.8608 28.3613 17.1711 29.47 15.0706 29.8807C14.72 29.9375 14.3694 29.824 14.0221 29.7639C12.6229 29.4132 11.3372 29.0058 9.99811 28.6552C8.83267 28.3046 7.66388 28.3045 6.46838 28.6852" stroke="#2B6EBF" stroke-width="1.2" stroke-miterlimit="10" stroke-linecap="round"/>
<path d="M2.42103 7.77658C5.6569 3.77266 10.6092 1.20801 16.1593 1.20801C25.9336 1.20801 33.9482 9.34275 33.8046 19.1171C33.6643 28.7412 25.8168 36.502 16.1593 36.502C9.4304 36.502 3.5798 32.7352 0.604405 27.1951C0.327236 26.6808 0.617762 26.043 1.1888 25.9128L2.2741 25.6623C4.16085 25.1714 6.20122 24.5704 6.20122 24.5704C6.20122 24.5704 8.43527 23.3715 9.30351 23.4149C10.1684 23.4617 15.8287 25.0946 15.8287 25.0946C15.8287 25.0946 17.8123 25.0379 17.4616 26.4938C17.111 27.9532 15.5715 27.4055 15.5715 27.4055L11.8615 26.7276" stroke="#2B6EBF" stroke-width="1.2" stroke-linecap="round" stroke-linejoin="round"/>
<path d="M1.99695 3.06152V7.95038H7.15296" stroke="#2B6EBF" stroke-width="1.2" stroke-miterlimit="10" stroke-linecap="round"/>
</g>
<defs>
<clipPath id="clip0_2087_366">
<rect width="34.3055" height="36.2891" fill="white" transform="translate(0 0.710938)"/>
</clipPath>
</defs>
</svg>
