<svg width="27" height="25" viewBox="0 0 27 25" fill="none" xmlns="http://www.w3.org/2000/svg">
<g clip-path="url(#clip0_2087_356)">
<path d="M8.42224 3.95703H26.9591" stroke="#949AA8" stroke-width="1.68444" stroke-miterlimit="10"/>
<path d="M0 3.95703H3.36889" stroke="#949AA8" stroke-width="1.68444" stroke-miterlimit="10"/>
<path d="M23.5902 12.3789H26.9591" stroke="#949AA8" stroke-width="1.68444" stroke-miterlimit="10"/>
<path d="M0 12.3789H18.5289" stroke="#949AA8" stroke-width="1.68444" stroke-miterlimit="10"/>
<path d="M13.4756 20.8096H26.9591" stroke="#949AA8" stroke-width="1.68444" stroke-miterlimit="10"/>
<path d="M0 20.8096H8.42222" stroke="#949AA8" stroke-width="1.68444" stroke-miterlimit="10"/>
<path d="M5.89955 6.48709C7.2972 6.48709 8.43021 5.35408 8.43021 3.95644C8.43021 2.55879 7.2972 1.42578 5.89955 1.42578C4.50191 1.42578 3.3689 2.55879 3.3689 3.95644C3.3689 5.35408 4.50191 6.48709 5.89955 6.48709Z" stroke="#949AA8" stroke-width="1.68444" stroke-miterlimit="10"/>
<path d="M21.0596 14.9099C22.4572 14.9099 23.5902 13.7769 23.5902 12.3793C23.5902 10.9816 22.4572 9.84863 21.0596 9.84863C19.6619 9.84863 18.5289 10.9816 18.5289 12.3793C18.5289 13.7769 19.6619 14.9099 21.0596 14.9099Z" stroke="#949AA8" stroke-width="1.68444" stroke-miterlimit="10"/>
<path d="M10.9529 23.3396C12.3505 23.3396 13.4836 22.2066 13.4836 20.809C13.4836 19.4113 12.3505 18.2783 10.9529 18.2783C9.55525 18.2783 8.42224 19.4113 8.42224 20.809C8.42224 22.2066 9.55525 23.3396 10.9529 23.3396Z" stroke="#949AA8" stroke-width="1.68444" stroke-miterlimit="10"/>
</g>
<defs>
<clipPath id="clip0_2087_356">
<rect width="26.9591" height="23.5902" fill="white" transform="translate(0 0.587891)"/>
</clipPath>
</defs>
</svg>
