<svg width="18" height="18" viewBox="0 0 18 18" fill="none" xmlns="http://www.w3.org/2000/svg">
<path d="M11.4961 3.02344L13.5 2.25L14.2383 0.28125C14.2734 0.105469 14.4492 0 14.625 0C14.7656 0 14.9414 0.105469 14.9766 0.28125L15.75 2.25L17.7188 3.02344C17.8945 3.05859 18 3.23437 18 3.375C18 3.55078 17.8945 3.72656 17.7188 3.76172L15.75 4.5L14.9766 6.50391C14.9414 6.64453 14.7656 6.75 14.625 6.75C14.4492 6.75 14.2734 6.64453 14.2383 6.50391L13.5 4.5L11.4961 3.76172C11.3555 3.72656 11.25 3.55078 11.25 3.375C11.25 3.23437 11.3555 3.05859 11.4961 3.02344ZM7.20703 2.60156L9.03516 6.60938L13.043 8.4375C13.2539 8.54297 13.3945 8.75391 13.3945 8.96484C13.3945 9.17578 13.2539 9.38672 13.043 9.45703L9.03516 11.3203L7.20703 15.3281C7.10156 15.5391 6.89063 15.6797 6.67969 15.6797C6.46875 15.6797 6.25781 15.5391 6.1875 15.3281L4.32422 11.3203L0.316407 9.49219C0.105469 9.38672 0 9.17578 0 8.96484C0 8.75391 0.105469 8.54297 0.316407 8.4375L4.32422 6.60938L6.1875 2.60156C6.25781 2.39062 6.46875 2.25 6.67969 2.25C6.89063 2.25 7.10156 2.39062 7.20703 2.60156ZM13.5 13.5L14.2383 11.5312C14.2734 11.3555 14.4492 11.25 14.625 11.25C14.7656 11.25 14.9414 11.3555 14.9766 11.5312L15.75 13.5L17.7188 14.2734C17.8945 14.3086 18 14.4844 18 14.625C18 14.8008 17.8945 14.9766 17.7188 15.0117L15.75 15.75L14.9766 17.7539C14.9414 17.8945 14.7656 18 14.625 18C14.4492 18 14.2734 17.8945 14.2383 17.7539L13.5 15.75L11.4961 15.0117C11.3555 14.9766 11.25 14.8008 11.25 14.625C11.25 14.4844 11.3555 14.3086 11.4961 14.2734L13.5 13.5Z" fill="#1399D6"/>
</svg>
